<?xml version="1.0" encoding="utf-8"?>
<!-- Generator: Adobe Illustrator 21.0.0, SVG Export Plug-In . SVG Version: 6.00 Build 0)  -->
<svg version="1.1"
	 id="svg3422" inkscape:version="0.91 r13725" sodipodi:docname="ehc1.svg" xmlns:cc="http://creativecommons.org/ns#" xmlns:dc="http://purl.org/dc/elements/1.1/" xmlns:inkscape="http://www.inkscape.org/namespaces/inkscape" xmlns:rdf="http://www.w3.org/1999/02/22-rdf-syntax-ns#" xmlns:sodipodi="http://sodipodi.sourceforge.net/DTD/sodipodi-0.dtd" xmlns:svg="http://www.w3.org/2000/svg"
	 xmlns="http://www.w3.org/2000/svg" xmlns:xlink="http://www.w3.org/1999/xlink" x="0px" y="0px" viewBox="0 0 778.8 289.8"
	 style="enable-background:new 0 0 778.8 289.8;" xml:space="preserve">
<style type="text/css">
	.st0{fill:#7FCC27;}
	.st1{fill:#67686A;}
</style>
<g id="layer2" transform="translate(-97.95232,-6.5358427)" inkscape:groupmode="layer" inkscape:label="Layer 2">
	<g id="g4255">
		<path id="path4300" inkscape:connector-curvature="0" class="st0" d="M484.5,6.5C451.6,6.8,419,12.2,403.6,24
			c-4.3,74.8,56.8,101.2,84.6,115.4C516,125.2,577.1,98.7,572.8,24C559.4,12.6,521.8,6.2,484.5,6.5z M489.1,16.4
			c30.4,0.2,60.5,4.7,74.1,12.6c1.3,62.2-48.4,85.9-75,99.9c-26.5-14-76.3-37.7-75-99.9C427.9,20.1,458.6,16.1,489.1,16.4z"/>
		<path id="path3562" inkscape:connector-curvature="0" class="st0" d="M98,150.1v109.2h64.8v-13.9h-47.2v-33.3h36.1v-14.2h-36.1
			V164h47.2v-13.9H98L98,150.1z"/>
		<path id="path3566" inkscape:connector-curvature="0" class="st0" d="M190,150.1l-18.6,9.2v14.5h-8.6v10.8h8.6v74.8H190v-74.8h7
			v-10.8h-7V150.1z"/>
		<path id="path3612" inkscape:connector-curvature="0" class="st0" d="M267.9,173.8v85.6h20v-85.6L267.9,173.8z"/>
		<path id="path3614" inkscape:connector-curvature="0" sodipodi:nodetypes="ccccc" class="st0" d="M224.6,265.7l-4.7,2.4v28.2h4.7
			V265.7z"/>
		<path id="path3616" inkscape:connector-curvature="0" class="st1" d="M451,150.1v109.2h17.7v-47.2H505v47.2h17.7V150.1H505v47.8
			h-36.4v-47.8H451L451,150.1z"/>
		<path id="path3620" inkscape:connector-curvature="0" class="st0" d="M287.8,159.8c0,5.5-4.5,10-10,10l0,0c-5.5,0-10-4.5-10-10
			s4.5-10,10-10S287.8,154.3,287.8,159.8L287.8,159.8z"/>
		<path id="path4424" inkscape:connector-curvature="0" sodipodi:nodetypes="cccccccccccc" class="st1" d="M675.8,150.1l-18.1,9.2
			v100h18.1v-38.5l14.8,38.5H708l-20.3-50.9l24-34.7H692l-16.3,24.6L675.8,150.1L675.8,150.1z"/>
		<path id="path4430" inkscape:connector-curvature="0" sodipodi:nodetypes="ccccccccccccc" class="st0" d="M225.9,150.1l-18.1,9.2
			v100h18.1v-74.7H236c3,0,4.7,3,4.7,4.5v70.3h17v-74.8c0,0,0.3-10.8-16.6-10.8c-10.1-0.2-11.9,1.3-15.1,3.1L225.9,150.1z"/>
		<path id="path4430-3" inkscape:connector-curvature="0" sodipodi:nodetypes="ccccccccccccc" class="st1" d="M773.6,173.8h-18.1
			v85.6h18.1v-74.8h10.1c3,0,4.7,3,4.7,4.5v70.3h17v-74.8c0,0-1-10.8-16.6-10.8c-11.5,0-12.6,1.4-15.1,3.1v-3.1L773.6,173.8
			L773.6,173.8z"/>
		<path id="path3612-8" inkscape:connector-curvature="0" class="st1" d="M718,173.7v85.6h20v-85.6L718,173.7L718,173.7z"/>
		<path id="path3620-5" inkscape:connector-curvature="0" class="st1" d="M737.9,159.8c0,5.5-4.5,10-10,10s-10-4.5-10-10
			s4.5-10,10-10C733.5,149.8,737.9,154.2,737.9,159.8z"/>
		<path id="path4269" inkscape:connector-curvature="0" class="st1" d="M851.5,174.6c-0.6,0-1,0-1.2,0c-1.6,0-14.8-0.7-22,5.7
			c-5.8,5.2-5.2,11.3-5.2,11.3v50.7c0,0-1,8,4.2,13c5.2,5,20.4,4,20.4,4s6.9,0,10.6-2l-0.5,22.9c-0.8,7.8-14.7,7.7-15.7,0l-0.2-8.4
			l-18.7-0.1l0.4,8.5c0,0-0.1,5.9,6.2,10.2c8.7,5.9,18.9,5.7,20.6,5.7s12.8,0.2,20.3-6.3c5.6-4.9,6.2-18,6.2-18v-80.4
			c0,0,0.7-5.7-4.2-11.5C868.2,174.7,855.7,174.5,851.5,174.6L851.5,174.6z M849.9,184.9c4.1,0,8.2,1.7,8.2,4.9v53.7
			c0.1,6.5-16.4,6.6-16.4,0v-53.7C841.7,186.5,845.8,184.9,849.9,184.9z"/>
		<path id="path4230" inkscape:connector-curvature="0" sodipodi:nodetypes="czzsccccccccccszzcc" class="st0" d="M292.9,198.4
			c0,0-0.1-10,5.9-17.1c6.1-7.1,18.3-6.8,19.9-6.8s11.6-1,18.8,5.4c5.8,5.2,5.1,11.3,5.1,11.3v10.9h-16.7l-0.1-12.4
			c0.1-6.5-14.7-6.6-14.7-0.2v54.7c0,6.6,14.7,6.5,14.7,0l0.1-12.8h16.7v11.3c0,0,0.7,6-5.1,11.2c-7.2,6.4-17.2,5.4-18.8,5.4
			s-13.9,0.3-19.9-6.8c-6-7.1-5.9-19.2-5.9-19.2V198.4z"/>
		<path id="path4259" inkscape:connector-curvature="0" sodipodi:nodetypes="czzsccccccccccszzcc" class="st1" d="M597.1,198.4
			c0,0-0.1-10,5.9-17.1c6.1-7.1,18.3-6.8,19.9-6.8c1.6,0,11.6-1,18.8,5.4c5.8,5.2,5.1,11.3,5.1,11.3v10.9h-16.7l-0.1-12.4
			c0.1-6.5-14.7-6.6-14.7-0.2v54.7c0,6.6,14.7,6.5,14.7,0l0.1-12.8h16.7v11.3c0,0,0.7,6-5.1,11.2c-7.2,6.4-17.2,5.4-18.8,5.4
			s-13.9,0.4-19.9-6.7c-6-7.1-5.9-19.2-5.9-19.2V198.4z"/>
		<path id="path4261" class="st0" d="M375.4,174.5c-3.8,0-10.8,0.6-16.2,5.4c-5.8,5.2-5.7,11.5-5.7,11.5l-0.1,9.5h16.9v-11.3
			c0-6.6,15.8-6.2,15.7,0v8.3c0,0,0.1,2.3-2.4,4.3s-7.4,3.9-12.2,6.2c-4.7,2.3-10,4.6-14.2,8.8s-3.5,19.2-3.5,19.2
			s-0.6,12.1,4.2,17.7c4.9,5.7,13.3,5,13.3,5H404l-0.1-60.9c0,0,0.1-10-5.9-17.1c-6.1-7.1-18.3-6.8-19.9-6.8
			C377.7,174.6,376.7,174.5,375.4,174.5z M386.1,212.7v34.5h-10.3c-3.3-0.3-4.2-1.3-4.3-4.1v-17.8c-0.1-3.1,1.3-5.5,3.6-6.9
			L386.1,212.7z"/>
		<path id="path4265" inkscape:connector-curvature="0" class="st1" d="M557.8,174.5c-3.8,0-10.8,0.6-16.2,5.4
			c-5.8,5.2-5.7,11.5-5.7,11.5l-0.1,9.5h16.9v-11.3c0-6.6,15.8-6.2,15.7,0v8.3c0,0,0.1,2.3-2.4,4.3s-7.4,3.9-12.2,6.2
			c-4.7,2.3-10,4.6-14.2,8.8s-3.5,19.2-3.5,19.2s-0.6,12.1,4.2,17.7s13.3,5,13.3,5h32.5l-0.1-60.9c0,0,0.1-10-5.9-17.1
			c-6.1-7.1-18.3-6.8-19.9-6.8C560,174.6,559,174.5,557.8,174.5L557.8,174.5z M568.4,212.7v34.5h-10.3c-3.3-0.3-4.2-1.3-4.3-4.1
			v-17.8c-0.1-3.1,1.3-5.5,3.6-6.9L568.4,212.7z"/>
		<path id="path4366" inkscape:connector-curvature="0" class="st0" d="M467.8,30.3v60.3h9.9V64.3H498v26.3h9.7V30.3H498V57h-20.3
			V30.3H467.8z"/>
		<path id="path4370" inkscape:connector-curvature="0" class="st1" d="M467.8,30.3v8h-18.9V57h18.9v7.2h-18.9v19.4h18.9v7.1h-28.1
			V30.3H467.8z"/>
		<path id="path4372" inkscape:connector-curvature="0" class="st1" d="M507.7,30.3v8h19.4V57h-19.4v7.2h19.4v19.4h-19.4v7.1h29
			V30.3H507.7z"/>
		<path id="path3566-0" inkscape:connector-curvature="0" sodipodi:nodetypes="ccccccccccccc" class="st0" d="M243.7,265.8l-4.7,2.3
			v4.7h-2.2v2.7h2.2v20.8h4.7v-20.8h1.7v-2.7h-1.7V265.8z"/>
		<path id="path4430-3-1" inkscape:connector-curvature="0" sodipodi:nodetypes="ccccccccccccc" class="st0" d="M151.8,272.3h-4.9
			v24h4.9v-21.1h2.7c0.8,0,1.3,0.8,1.3,1.2v19.9h4.6v-21.1c0,0-0.3-2.9-4.5-2.9c-3.1,0-3.4,0.4-4.1,0.8V272.3z"/>
		<path id="path4431" inkscape:connector-curvature="0" class="st0" d="M263.5,272.2c-7.3,0-7.4,4-7.4,4v16.2c0,0,0,3.9,7.4,3.9
			c7.3,0,7.4-3.9,7.4-3.9v-16.2C270.9,276.2,270.8,272.2,263.5,272.2z M263.5,275.1c2.6,0,2.6,1.4,2.6,1.4V292c0,0,0,1.4-2.6,1.4
			s-2.6-1.4-2.6-1.4v-15.4C260.9,276.6,260.9,275.1,263.5,275.1z"/>
		<path id="path4436" inkscape:connector-curvature="0" class="st0" d="M130.1,272.2c-7.3,0-7.4,4-7.4,4v16.2c0,0,0,3.9,7.4,3.9
			c7.3,0,7.4-3.9,7.4-3.9v-16.2C137.5,276.2,137.4,272.2,130.1,272.2z M130.1,275.1c2.6,0,2.6,1.4,2.6,1.4V292c0,0,0,1.4-2.6,1.4
			c-2.6,0-2.6-1.4-2.6-1.4v-15.4C127.5,276.6,127.5,275.1,130.1,275.1z"/>
		<path id="path4438" inkscape:connector-curvature="0" sodipodi:nodetypes="ccsccccsccc" class="st0" d="M195.1,272.3v20.2
			c0,0,0,3.9,7.4,3.9c7.3,0,7.4-3.9,7.4-3.9v-20.2h-4.7V292c0,0,0,1.4-2.6,1.4S200,292,200,292v-19.7H195.1z"/>
		<path id="path4443" inkscape:connector-curvature="0" class="st0" d="M106.7,265.1c-8.7,0-8.8,4.7-8.8,4.7v21.9c0,0,0,4.6,8.8,4.6
			c8.7,0,8.8-4.6,8.8-4.6v-6.4h-5.2v5.9c0,0,0,1.6-3.1,1.6s-3.1-1.6-3.1-1.6v-21c0,0,0-1.7,3.1-1.7s3.1,1.7,3.1,1.7v5h5.2v-5.4
			C115.5,269.8,115.4,265.1,106.7,265.1z"/>
		<path id="path4450" inkscape:connector-curvature="0" sodipodi:nodetypes="sccsccccsccccssccccs" class="st0" d="M312.1,272.2
			c-7.3,0-6.9,4-6.9,4v16.2c0,0-0.5,3.9,6.9,3.9c7.3,0,6.6-3.9,6.6-3.9v-4h-4.4v3.5c0,0,0.4,1.4-2.2,1.4s-2.2-1.4-2.2-1.4v-6.7h8.9
			v-9.1C318.7,276.2,319.4,272.2,312.1,272.2z M312.1,275.1c2.6,0,2.2,1.4,2.2,1.4v5.8h-4.5v-5.7
			C309.8,276.6,309.4,275.1,312.1,275.1z"/>
		<path id="path4461" inkscape:connector-curvature="0" class="st0" d="M280.9,272.3v24h4.9v-21.1h2.7c0.8,0,1.3,0.8,1.3,1.2v4.1
			l4.6-2.9v-2.4c0,0-0.3-3-4.5-3c-3.1,0-3.4,0.4-4.1,0.8v-0.8L280.9,272.3L280.9,272.3z"/>
		<path id="path4466" inkscape:connector-curvature="0" sodipodi:nodetypes="csccccscccccsccccsccccc" class="st0" d="M175.6,276.6
			c0,0-0.1-1.4,2.2-1.4c2.6,0,2.4,1.4,2.4,1.4v3h4.7v-3.3c0,0,0.2-4-7.1-4s-6.7,4-6.7,4v3.5c0,5.2,4.2,5.4,5.9,5.5
			c3.1-0.1,3.1,1,3.1,4.2v2.6c0,0,0.2,1.3-2.4,1.4c-2.3,0-2.2-1.4-2.2-1.4v-3.5H171v4c0,0-0.7,3.9,6.7,3.9c7.3,0,7.1-3.9,7.1-3.9
			v-4.8c0-5.1-4.4-5.4-6.2-5.5c-3.1,0.1-3.1-1-3.1-4.2L175.6,276.6z"/>
		<path id="path4478" inkscape:connector-curvature="0" sodipodi:nodetypes="csccccscccccsccccsccccc" class="st0" d="M333.8,276.6
			c0,0-0.1-1.4,2.2-1.4c2.6,0,2.4,1.4,2.4,1.4v3h4.7v-3.3c0,0,0.2-4-7.1-4c-7.3,0-6.7,4-6.7,4v3.5c0,5.2,4.2,5.4,5.9,5.5
			c3.1-0.1,3.1,1,3.1,4.2v2.6c0,0,0.2,1.3-2.4,1.4c-2.3,0-2.2-1.4-2.2-1.4v-3.5h-4.5v4c0,0-0.7,3.9,6.7,3.9c7.3,0,7.1-3.9,7.1-3.9
			v-4.8c0-5.1-4.4-5.4-6.2-5.5c-3.1,0.1-3.1-1-3.1-4.2L333.8,276.6z"/>
		<path id="path4480" inkscape:connector-curvature="0" class="st0" d="M414.2,259.4h17.9V150.1l-17.9,9.2V259.4z"/>
	</g>
</g>
</svg>
